<svg xmlns="http://www.w3.org/2000/svg" version="1.1" class="Exsurge ChantScore" width="968" height="202.0935">
<g>
<defs>
<g id="Mora" class="glyph" transform="scale(0.0625)">
<path d="M47.478-24c6.957 0 12.793 2.288 17.49 6.883C69.662-12.52 72-6.904 72-.267c0 6.64-2.337 12.352-7.033 17.118C60.27 21.618 54.435 24 47.477 24c-6.26 0-11.748-2.383-16.444-7.15C26.337 12.086 24 6.374 24-.265c0-6.638 2.337-12.255 7.033-16.85C35.73-21.713 41.217-24 47.478-24z">
</path>
</g>
<g id="PunctumQuadratum" class="glyph" transform="scale(0.0625)">
<path d="M0-60.906c33.333 0 50 9.635 50 28.906v94.53C39.062 51.595 22.396 46.126 0 46.126s-39.063 5.47-50 16.406V-32c0-19.27 16.667-28.906 50-28.906z">
</path>
</g>
<g id="PodatusLower" class="glyph" transform="scale(0.0625)">
<path d="M-4.688-30.28c22.396 0 34.636-.262 36.72-.782 5.728-1.563 8.593-5.21 8.593-10.938H50v97.656c0 2.604-1.302 4.167-3.906 4.688-5.21.52-21.355.78-48.438.78-23.958 0-38.54-.26-43.75-.78-2.604 0-3.906-1.302-3.906-3.906v-82.032c0-3.646 1.302-5.468 3.906-5.468h2.344c2.604.52 15.625.78 39.063.78z">
</path>
</g>
<g id="PodatusUpper" class="glyph" transform="scale(0.0625)">
<path d="M-46.094-63.78c13.542 0 24.61 2.473 33.203 7.42C-4.298-51.41 0-43.99 0-34.093V62h-9.375c0-10.938-2.604-19.14-7.812-24.61-5.21-5.468-14.844-8.203-28.907-8.202-18.23 0-33.333 4.166-45.312 12.5v-75.782c0-19.79 15.104-29.687 45.312-29.687z">
</path>
</g>
<g id="DoClef" class="glyph" transform="scale(0.0625)">
<path d="M0 98.406V-97.688C0-118 5.99-134.275 17.97-146.516c11.978-12.24 27.603-18.36 46.874-18.36 10.937 0 19.53 3.126 25.78 9.376s9.376 14.583 9.376 25v107.813l-6.25-5.47c-4.167-3.645-10.287-7.42-18.36-11.327-8.072-3.907-16.796-5.86-26.17-5.86-11.46 0-21.486 4.427-30.08 13.282-8.593 8.854-12.89 19.53-12.89 32.03s4.297 23.308 12.89 32.423c8.594 9.115 18.62 13.672 30.08 13.672 9.374 0 18.098-1.822 26.17-5.468 8.073-3.646 14.193-7.292 18.36-10.938l6.25-6.25V132c0 9.896-3.125 18.1-9.375 24.61-6.25 6.51-14.844 9.765-25.78 9.765-19.272 0-34.897-6.25-46.876-18.75C5.99 135.125 0 118.72 0 98.405z">
</path>
</g>
<g id="CustosLong" class="glyph" transform="scale(0.0625)">
<path d="M39.063-269.562c5.73-.52 7.29 6.25 4.687 20.312V69.5c-13.542-2.083-24.22-5.47-32.03-10.156C3.905 54.134 0 47.624 0 39.812V-68c5.73 5.208 10.677 8.594 14.844 10.156 5.73 1.563 12.24 2.344 19.53 2.344v-196.875c0-11.458 1.563-17.187 4.688-17.187z">
</path>
</g>
<style>
svg.Exsurge .supertitle{fill:#000;font-family:'Crimson Text', serif;font-size:24.888888888888886px;font-kerning:normal}svg.Exsurge .title{fill:#000;font-family:'Crimson Text', serif;font-size:32px;font-kerning:normal}svg.Exsurge .subtitle{fill:#000;font-family:'Crimson Text', serif;font-size:21.333333333333332px;font-kerning:normal}svg.Exsurge .textLeftRight{fill:#000;font-family:'Crimson Text', serif;font-size:19.2px;font-kerning:normal}svg.Exsurge .annotation{fill:#000;font-family:'Crimson Text', serif;font-size:12.8px;font-kerning:normal}svg.Exsurge .dropCap{fill:#000;font-family:'Crimson Text', serif;font-size:64px;font-kerning:normal}svg.Exsurge .aboveLinesText{fill:#000;font-family:'Crimson Text', serif;font-size:21.333333333333332px;font-kerning:normal}svg.Exsurge .choralSign{fill:#000;font-family:'Crimson Text', serif;font-size:9.375px;font-kerning:normal}svg.Exsurge .lyric{fill:#000;font-family:'Crimson Text', serif;font-size:19.2px;font-kerning:normal}svg.Exsurge .translation{fill:#000;font-family:'Crimson Text', serif;font-size:16px;font-kerning:normal}</style>
</defs>
<g class="Titles">
</g>
<g class="chantLine" transform="translate(0,55.875)" element-index="0">
<g class="staffLines">
<line key="-3" x1="58.71875" y1="-18.75" x2="968" y2="-18.75" stroke="#000" stroke-width="0.8" class="staffLine">
</line>
<line key="-1" x1="58.71875" y1="-6.25" x2="968" y2="-6.25" stroke="#000" stroke-width="0.8" class="staffLine">
</line>
<line key="1" x1="58.71875" y1="6.25" x2="968" y2="6.25" stroke="#000" stroke-width="0.8" class="staffLine">
</line>
<line key="3" x1="58.71875" y1="18.75" x2="968" y2="18.75" stroke="#000" stroke-width="0.8" class="staffLine">
</line>
</g>
<text source-index="4" x="29.359375" y="49.158249999999995" class="dropCap" text-anchor="middle" style="">
<tspan source-index="0" style="">
A</tspan>
</text>
<g class="ChantNotationElement e" transform="translate(58.71875,0)">
<g class="Notations">
<use xlink:href="#DoClef" class="" source-index="1" element-index="-1" x="0" y="-18.75">
</use>
</g>
</g>
<g class="ChantNotationElement e" transform="translate(72.78125,0)">
<text source-index="5" x="-1.671875" y="49.158249999999995" class="lyric" text-anchor="start" style="">
<tspan source-index="0" style="">
d</tspan>
<tspan source-index="0" style="textLength: 4.472711181640619;" textLength="4.472711181640619" lengthAdjust="spacingAndGlyphs" y="49.158249999999995">
-</tspan>
</text>
<text source-index="9" x="0" y="-41.875" class="aboveLinesText" text-anchor="start" style="">
<tspan source-index="3" style="font-style: italic;">
 \Large \color{red} C</tspan>
</text>
<g class="Notations">
<use xlink:href="#PunctumQuadratum" class=" note" source-index="7" element-index="0" id="note-1" x="3.125" y="18.75">
</use>
</g>
</g>
<g class="ChantNotationElement e" transform="translate(86.84771118164062,0)">
<text source-index="36" x="-1.671875" y="49.158249999999995" class="lyric" text-anchor="start" style="">
<tspan source-index="0" style="">
o</tspan>
</text>
<g class="Notations">
<use xlink:href="#PunctumQuadratum" class=" note" source-index="38" element-index="1" id="note-2" x="3.125" y="18.75">
</use>
</g>
</g>
<g class="ChantNotationElement e" transform="translate(102.83104858398437,0)">
<text source-index="40" x="-8.06146240234375" y="49.158249999999995" class="lyric" text-anchor="start" style="">
<tspan source-index="0" style="">
ro</tspan>
</text>
<g class="Notations">
<use xlink:href="#PunctumQuadratum" class=" note" source-index="43" element-index="2" id="note-3" x="3.125" y="18.75">
</use>
</g>
</g>
<g class="ChantNotationElement e" transform="translate(122.31058848987924,0)">
<text source-index="46" x="-6.4640655517578125" y="49.158249999999995" class="lyric" text-anchor="start" style="">
<tspan source-index="0" style="">
te</tspan>
</text>
<g class="Notations">
<use xlink:href="#PunctumQuadratum" class=" note" source-index="49" element-index="3" id="note-4" x="3.125" y="18.75">
</use>
</g>
</g>
<g class="ChantNotationElement e" transform="translate(145.51426474831317,0)">
<text source-index="52" x="-10.726913452148438" y="49.158249999999995" class="lyric" text-anchor="start" style="">
<tspan source-index="0" style="">
de</tspan>
</text>
<g class="Notations">
<rect x="0" y="18.75" width="0.8" height="9.756761363636365" fill="#000" class="neumeLine">
</rect>
<use xlink:href="#PunctumQuadratum" class=" note" source-index="55" element-index="4" id="note-5" x="3.125" y="18.75">
</use>
<use xlink:href="#PunctumQuadratum" class=" note" source-index="56" element-index="5" id="note-6" x="9.375" y="25">
</use>
</g>
</g>
<g class="ChantNotationElement e" transform="translate(164.1630532004616,0)">
<text source-index="58" x="-11.265625" y="49.158249999999995" class="lyric" text-anchor="start" style="">
<tspan source-index="0" style="">
vo</tspan>
</text>
<g class="Notations">
<use xlink:href="#PunctumQuadratum" class=" note" source-index="61" element-index="6" id="note-7" x="3.125" y="6.25">
</use>
</g>
</g>
<g class="ChantNotationElement e" transform="translate(178.54899375221942,0)">
<text source-index="63" x="-6.4640655517578125" y="49.158249999999995" class="lyric" text-anchor="start" style="">
<tspan source-index="0" style="">
te,</tspan>
</text>
<g class="Notations">
<rect x="0" y="6.25" width="0.8" height="16.006761363636365" fill="#000" class="neumeLine">
</rect>
<use xlink:href="#PunctumQuadratum" class=" note" source-index="67" element-index="7" id="note-8" x="3.125" y="6.25">
</use>
<use xlink:href="#PunctumQuadratum" class=" note" source-index="68" element-index="8" id="note-9" x="9.375" y="12.5">
</use>
</g>
</g>
<g class="ChantNotationElement e" transform="translate(202.60738192471584,0)">
<text source-index="71" x="-6.4640655517578125" y="49.158249999999995" class="lyric" text-anchor="start" style="">
<tspan source-index="0" style="">
la</tspan>
</text>
<g class="Notations">
<use xlink:href="#PunctumQuadratum" class=" note" source-index="74" element-index="9" id="note-10" x="3.125" y="18.75">
</use>
</g>
</g>
<g class="ChantNotationElement e" transform="translate(216.4546109286221,0)">
<text source-index="76" x="-6.4640655517578125" y="49.158249999999995" class="lyric" text-anchor="start" style="">
<tspan source-index="0" style="">
tens</tspan>
</text>
<g class="Notations">
<use xlink:href="#PodatusLower" class=" note" source-index="81" element-index="10" id="note-11" x="3.125" y="25">
</use>
<use xlink:href="#PodatusUpper" class=" note" source-index="82" element-index="11" id="note-12" x="6.25" y="18.75">
</use>
</g>
</g>
<g class="ChantNotationElement e" transform="translate(260.98189558549353,0)">
<text source-index="85" x="-14.989761352539062" y="49.158249999999995" class="lyric" text-anchor="start" style="">
<tspan source-index="0" style="">
De</tspan>
<tspan source-index="0" style="">
-</tspan>
</text>
<g class="Notations">
<use xlink:href="#PunctumQuadratum" class=" note" source-index="88" element-index="12" id="note-13" x="3.125" y="18.75">
</use>
</g>
</g>
<g class="ChantNotationElement e" transform="translate(275.04439558549353,0)">
<text source-index="90" x="0.4595489501953125" y="49.158249999999995" class="lyric" text-anchor="start" style="">
<tspan source-index="0" style="">
i</tspan>
</text>
<g class="Notations">
<use xlink:href="#PunctumQuadratum" class=" note" source-index="92" element-index="13" id="note-14" x="3.125" y="18.75">
</use>
</g>
</g>
<g class="ChantNotationElement e" transform="translate(287.29891218705603,0)">
<text source-index="94" x="-6.4640655517578125" y="49.158249999999995" class="lyric" text-anchor="start" style="">
<tspan source-index="0" style="">
tas,</tspan>
</text>
<g class="Notations">
<use xlink:href="#PunctumQuadratum" class=" note" source-index="99" element-index="14" id="note-15" x="3.125" y="18.75">
</use>
<use xlink:href="#Mora" class="" x="6.375" y="14.0625">
</use>
</g>
</g>
<g class="ChantNotationElement e" transform="translate(315.6543325250798,0)">
<g class="Notations">
<rect x="0" y="-18.75" width="0.8" height="37.5" fill="#000" class="dividerLine" source-index="104" element-index="15">
</rect>
<rect x="5.45" y="-18.75" width="0.8" height="37.5" fill="#000" class="dividerLine" source-index="104" element-index="15">
</rect>
</g>
</g>
<g class="ChantNotationElement e" transform="translate(339.3847528631036,0)">
<text source-index="108" x="-26.72430419921875" y="49.158249999999995" class="lyric" text-anchor="start" style="">
<tspan source-index="0" style="">
Quæ</tspan>
</text>
<g class="Notations">
<use xlink:href="#PunctumQuadratum" class=" note" source-index="112" element-index="16" id="note-16" x="3.125" y="18.75">
</use>
</g>
</g>
<g class="ChantNotationElement e" transform="translate(363.1411940141157,0)">
<text source-index="115" x="-9.138885498046875" y="49.158249999999995" class="lyric" text-anchor="start" style="">
<tspan source-index="0" style="">
sub</tspan>
</text>
<g class="Notations">
<use xlink:href="#PunctumQuadratum" class=" note" source-index="119" element-index="17" id="note-17" x="3.125" y="18.75">
</use>
</g>
</g>
<g class="ChantNotationElement e" transform="translate(394.88461941805747,0)">
<text source-index="122" x="-9.134201049804688" y="49.158249999999995" class="lyric" text-anchor="start" style="">
<tspan source-index="0" style="">
his</tspan>
</text>
<g class="Notations">
<use xlink:href="#PunctumQuadratum" class=" note" source-index="126" element-index="18" id="note-18" x="3.125" y="18.75">
</use>
</g>
</g>
<g class="ChantNotationElement e" transform="translate(419.16571877219457,0)">
<text source-index="129" x="-5.9300384521484375" y="49.158249999999995" class="lyric" text-anchor="start" style="">
<tspan source-index="0" style="">
fi</tspan>
</text>
<g class="Notations">
<use xlink:href="#PunctumQuadratum" class=" note" source-index="132" element-index="19" id="note-19" x="3.125" y="18.75">
</use>
</g>
</g>
<g class="ChantNotationElement e" transform="translate(436.22179482199925,0)">
<text source-index="134" x="-11.265625" y="49.158249999999995" class="lyric" text-anchor="start" style="">
<tspan source-index="0" style="">
gu</tspan>
<tspan source-index="0" style="">
-</tspan>
</text>
<g class="Notations">
<rect x="0" y="18.75" width="0.8" height="9.756761363636365" fill="#000" class="neumeLine">
</rect>
<use xlink:href="#PunctumQuadratum" class=" note" source-index="137" element-index="20" id="note-20" x="3.125" y="18.75">
</use>
<use xlink:href="#PunctumQuadratum" class=" note" source-index="138" element-index="21" id="note-21" x="9.375" y="25">
</use>
</g>
</g>
<g class="ChantNotationElement e" transform="translate(456.46329567649144,0)">
<text source-index="140" x="-5.9300384521484375" y="49.158249999999995" class="lyric" text-anchor="start" style="">
<tspan source-index="0" style="">
ris</tspan>
</text>
<g class="Notations">
<use xlink:href="#PunctumQuadratum" class=" note" source-index="144" element-index="22" id="note-22" x="3.125" y="6.25">
</use>
</g>
</g>
<g class="ChantNotationElement e" transform="translate(485.5412700306285,0)">
<text source-index="147" x="-10.726913452148438" y="49.158249999999995" class="lyric" text-anchor="start" style="">
<tspan source-index="0" style="">
ve</tspan>
<tspan source-index="0" style="textLength: 5.406585693359375;" textLength="5.406585693359375" lengthAdjust="spacingAndGlyphs" y="49.158249999999995">
-</tspan>
</text>
<g class="Notations">
<rect x="0" y="6.25" width="0.8" height="16.006761363636365" fill="#000" class="neumeLine">
</rect>
<use xlink:href="#PunctumQuadratum" class=" note" source-index="150" element-index="23" id="note-23" x="3.125" y="6.25">
</use>
<use xlink:href="#PunctumQuadratum" class=" note" source-index="151" element-index="24" id="note-24" x="9.375" y="12.5">
</use>
</g>
</g>
<g class="ChantNotationElement e" transform="translate(505.8537700306285,0)">
<text source-index="153" x="-7.5227508544921875" y="49.158249999999995" class="lyric" text-anchor="start" style="">
<tspan source-index="0" style="">
re</tspan>
</text>
<g class="Notations">
<use xlink:href="#PunctumQuadratum" class=" note" source-index="156" element-index="25" id="note-25" x="3.125" y="18.75">
</use>
</g>
</g>
<g class="ChantNotationElement e" transform="translate(524.7945983886718,0)">
<text source-index="159" x="-6.4640655517578125" y="49.158249999999995" class="lyric" text-anchor="start" style="">
<tspan source-index="0" style="">
la</tspan>
</text>
<g class="Notations">
<use xlink:href="#PodatusLower" class=" note" source-index="162" element-index="26" id="note-26" x="3.125" y="25">
</use>
<use xlink:href="#PodatusUpper" class=" note" source-index="163" element-index="27" id="note-27" x="6.25" y="18.75">
</use>
</g>
</g>
<g class="ChantNotationElement e" transform="translate(537.0491149902343,0)">
<text source-index="165" x="-4.8713531494140625" y="49.158249999999995" class="lyric" text-anchor="start" style="">
<tspan source-index="0" style="">
ti</tspan>
</text>
<g class="Notations">
<use xlink:href="#PunctumQuadratum" class=" note" source-index="168" element-index="28" id="note-28" x="3.125" y="18.75">
</use>
</g>
</g>
<g class="ChantNotationElement e" transform="translate(549.3036315917968,0)">
<text source-index="170" x="-6.4640655517578125" y="49.158249999999995" class="lyric" text-anchor="start" style="">
<tspan source-index="0" style="">
tas.</tspan>
</text>
<g class="Notations">
<use xlink:href="#PunctumQuadratum" class=" note" source-index="175" element-index="29" id="note-29" x="3.125" y="18.75">
</use>
<use xlink:href="#Mora" class="" x="6.375" y="14.0625">
</use>
</g>
</g>
<g class="ChantNotationElement e" transform="translate(569.7586193431507,0)">
<g class="Notations">
<rect x="0" y="-18.75" width="0.8" height="37.5" fill="#000" class="dividerLine" source-index="180" element-index="30">
</rect>
<rect x="5.45" y="-18.75" width="0.8" height="37.5" fill="#000" class="dividerLine" source-index="180" element-index="30">
</rect>
</g>
</g>
<g class="ChantNotationElement e" transform="translate(585.5886070945046,0)">
<text source-index="184" x="-10.923439025878906" y="49.158249999999995" class="lyric" text-anchor="start" style="">
<tspan source-index="0" style="">
Ti</tspan>
</text>
<g class="Notations">
<use xlink:href="#PunctumQuadratum" class=" note" source-index="187" element-index="31" id="note-30" x="3.125" y="18.75">
</use>
</g>
</g>
<g class="ChantNotationElement e" transform="translate(600.1757576682351,0)">
<text source-index="189" x="-9.134201049804688" y="49.158249999999995" class="lyric" text-anchor="start" style="">
<tspan source-index="0" style="">
bi</tspan>
</text>
<g class="Notations">
<use xlink:href="#PunctumQuadratum" class=" note" source-index="192" element-index="32" id="note-31" x="3.125" y="18.75">
</use>
</g>
</g>
<g class="ChantNotationElement e" transform="translate(619.6599820223721,0)">
<text source-index="195" x="-8.600173950195312" y="49.158249999999995" class="lyric" text-anchor="start" style="">
<tspan source-index="0" style="">
se</tspan>
</text>
<g class="Notations">
<use xlink:href="#PunctumQuadratum" class=" note" source-index="198" element-index="33" id="note-32" x="3.125" y="18.75">
</use>
</g>
</g>
<g class="ChantNotationElement e" transform="translate(642.3249467329545,0)">
<text source-index="201" x="-10.188201904296875" y="49.158249999999995" class="lyric" text-anchor="start" style="">
<tspan source-index="0" style="">
cor</tspan>
</text>
<g class="Notations">
<use xlink:href="#PunctumQuadratum" class=" note" source-index="205" element-index="34" id="note-33" x="3.125" y="18.75">
</use>
</g>
</g>
<g class="ChantNotationElement e" transform="translate(677.7878240411932,0)">
<text source-index="208" x="-16.057815551757812" y="49.158249999999995" class="lyric" text-anchor="start" style="">
<tspan source-index="0" style="">
me</tspan>
<tspan source-index="0" style="textLength: 5.0074615478515625;" textLength="5.0074615478515625" lengthAdjust="spacingAndGlyphs" y="49.158249999999995">
-</tspan>
</text>
<g class="Notations">
<use xlink:href="#PunctumQuadratum" class=" note" source-index="211" element-index="35" id="note-34" x="3.125" y="18.75">
</use>
</g>
</g>
<g class="ChantNotationElement e" transform="translate(691.8503240411932,0)">
<text source-index="213" x="-1.671875" y="49.158249999999995" class="lyric" text-anchor="start" style="">
<tspan source-index="0" style="">
um</tspan>
</text>
<g class="Notations">
<rect x="0" y="18.75" width="0.8" height="9.756761363636365" fill="#000" class="neumeLine">
</rect>
<use xlink:href="#PunctumQuadratum" class=" note" source-index="216" element-index="36" id="note-35" x="3.125" y="18.75">
</use>
<use xlink:href="#PunctumQuadratum" class=" note" source-index="217" element-index="37" id="note-36" x="9.375" y="25">
</use>
</g>
</g>
<g class="ChantNotationElement e" transform="translate(726.793227594549,0)">
<text source-index="220" x="-7.002777099609375" y="49.158249999999995" class="lyric" text-anchor="start" style="">
<tspan source-index="0" style="">
to</tspan>
</text>
<g class="Notations">
<use xlink:href="#PunctumQuadratum" class=" note" source-index="223" element-index="38" id="note-37" x="3.125" y="6.25">
</use>
</g>
</g>
<g class="ChantNotationElement e" transform="translate(741.7178796941583,0)">
<text source-index="225" x="-7.002777099609375" y="49.158249999999995" class="lyric" text-anchor="start" style="">
<tspan source-index="0" style="">
tum</tspan>
</text>
<g class="Notations">
<rect x="0" y="6.25" width="0.8" height="16.006761363636365" fill="#000" class="neumeLine">
</rect>
<use xlink:href="#PunctumQuadratum" class=" note" source-index="229" element-index="39" id="note-38" x="3.125" y="6.25">
</use>
<use xlink:href="#PunctumQuadratum" class=" note" source-index="230" element-index="40" id="note-39" x="9.375" y="12.5">
</use>
</g>
</g>
<g class="ChantNotationElement e" transform="translate(778.7968916459517,0)">
<text source-index="233" x="-9.138885498046875" y="49.158249999999995" class="lyric" text-anchor="start" style="">
<tspan source-index="0" style="">
sub</tspan>
</text>
<g class="Notations">
<use xlink:href="#PunctumQuadratum" class=" note" source-index="237" element-index="41" id="note-40" x="3.125" y="18.75">
</use>
</g>
</g>
<g class="ChantNotationElement e" transform="translate(801.1838697953658,0)">
<text source-index="239" x="-4.8713531494140625" y="49.158249999999995" class="lyric" text-anchor="start" style="">
<tspan source-index="0" style="">
ji</tspan>
</text>
<g class="Notations">
<use xlink:href="#PodatusLower" class=" note" source-index="242" element-index="42" id="note-41" x="3.125" y="25">
</use>
<use xlink:href="#PodatusUpper" class=" note" source-index="243" element-index="43" id="note-42" x="6.25" y="18.75">
</use>
</g>
</g>
<g class="ChantNotationElement e" transform="translate(815.0310987992721,0)">
<text source-index="245" x="-8.056777954101562" y="49.158249999999995" class="lyric" text-anchor="start" style="">
<tspan source-index="0" style="">
cit,</tspan>
</text>
<g class="Notations">
<use xlink:href="#PunctumQuadratum" class=" note" source-index="250" element-index="44" id="note-43" x="3.125" y="18.75">
</use>
<use xlink:href="#Mora" class="" x="6.375" y="14.0625">
</use>
</g>
</g>
<g class="ChantNotationElement e" transform="translate(839.6553561123935,0)">
<g class="Notations">
<rect x="0" y="-18.75" width="0.8" height="37.5" fill="#000" class="dividerLine" source-index="255" element-index="45">
</rect>
<rect x="5.45" y="-18.75" width="0.8" height="37.5" fill="#000" class="dividerLine" source-index="255" element-index="45">
</rect>
</g>
</g>
<g class="ChantNotationElement e" transform="translate(859.6546134255149,0)">
<text source-index="259" x="-22.990798950195312" y="49.158249999999995" class="lyric" text-anchor="start" style="">
<tspan source-index="0" style="">
Qui</tspan>
<tspan source-index="0" style="">
-</tspan>
</text>
<g class="Notations">
<use xlink:href="#PunctumQuadratum" class=" note" source-index="263" element-index="46" id="note-44" x="3.125" y="18.75">
</use>
</g>
</g>
<g class="ChantNotationElement e" transform="translate(873.7171134255149,0)">
<text source-index="265" x="-1.1331634521484375" y="49.158249999999995" class="lyric" text-anchor="start" style="">
<tspan source-index="0" style="">
a</tspan>
</text>
<g class="Notations">
<use xlink:href="#PunctumQuadratum" class=" note" source-index="267" element-index="47" id="note-45" x="3.125" y="18.75">
</use>
</g>
</g>
<g class="ChantNotationElement e" transform="translate(892.6579417835583,0)">
<text source-index="270" x="-6.4640655517578125" y="49.158249999999995" class="lyric" text-anchor="start" style="">
<tspan source-index="0" style="">
te</tspan>
</text>
<g class="Notations">
<use xlink:href="#PunctumQuadratum" class=" note" source-index="273" element-index="48" id="note-46" x="3.125" y="18.75">
</use>
</g>
</g>
<g class="ChantNotationElement e" transform="translate(915.3229064941406,0)">
<text source-index="276" x="-10.188201904296875" y="49.158249999999995" class="lyric" text-anchor="start" style="">
<tspan source-index="0" style="">
con</tspan>
</text>
<g class="Notations">
<use xlink:href="#PunctumQuadratum" class=" note" source-index="280" element-index="49" id="note-47" x="3.125" y="18.75">
</use>
</g>
</g>
<g class="ChantNotationElement e" transform="translate(939.3025970458984,0)">
<text source-index="282" x="-6.4640655517578125" y="49.158249999999995" class="lyric" text-anchor="start" style="">
<tspan source-index="0" style="">
tem</tspan>
<tspan source-index="0" style="">
-</tspan>
</text>
<g class="Notations">
<rect x="0" y="18.75" width="0.8" height="9.756761363636365" fill="#000" class="neumeLine">
</rect>
<use xlink:href="#PunctumQuadratum" class=" note" source-index="286" element-index="50" id="note-48" x="3.125" y="18.75">
</use>
<use xlink:href="#PunctumQuadratum" class=" note" source-index="287" element-index="51" id="note-49" x="9.375" y="25">
</use>
</g>
</g>
<g class="ChantNotationElement e" transform="translate(965.1029375,0)">
<g class="Notations">
<use xlink:href="#CustosLong" class="" x="0" y="6.25">
</use>
</g>
</g>
</g>
<g class="chantLine" transform="translate(0,145.90325)" element-index="1">
<g class="staffLines">
<line key="-3" x1="0" y1="-18.75" x2="968" y2="-18.75" stroke="#000" stroke-width="0.8" class="staffLine">
</line>
<line key="-1" x1="0" y1="-6.25" x2="968" y2="-6.25" stroke="#000" stroke-width="0.8" class="staffLine">
</line>
<line key="1" x1="0" y1="6.25" x2="968" y2="6.25" stroke="#000" stroke-width="0.8" class="staffLine">
</line>
<line key="3" x1="0" y1="18.75" x2="968" y2="18.75" stroke="#000" stroke-width="0.8" class="staffLine">
</line>
</g>
<g class="ChantNotationElement e" transform="translate(0,0)">
<g class="Notations">
<use xlink:href="#DoClef" class="" source-index="1" element-index="-1" x="0" y="-18.75">
</use>
</g>
</g>
<g class="ChantNotationElement e" transform="translate(16.057815551757812,0)">
<text source-index="289" x="-16.057815551757812" y="49.07025" class="lyric" text-anchor="start" style="">
<tspan source-index="0" style="">
plans</tspan>
</text>
<g class="Notations">
<use xlink:href="#PunctumQuadratum" class=" note" source-index="295" element-index="52" id="note-50" x="3.125" y="6.25">
</use>
</g>
</g>
<g class="ChantNotationElement e" transform="translate(51.977227783203126,0)">
<text source-index="298" x="-7.002777099609375" y="49.07025" class="lyric" text-anchor="start" style="">
<tspan source-index="0" style="">
to</tspan>
<tspan source-index="0" style="textLength: 5.387847900390618;" textLength="5.387847900390618" lengthAdjust="spacingAndGlyphs" y="49.07025">
-</tspan>
</text>
<g class="Notations">
<rect x="0" y="6.25" width="0.8" height="16.006761363636365" fill="#000" class="neumeLine">
</rect>
<use xlink:href="#PunctumQuadratum" class=" note" source-index="301" element-index="53" id="note-51" x="3.125" y="6.25">
</use>
<use xlink:href="#PunctumQuadratum" class=" note" source-index="302" element-index="54" id="note-52" x="9.375" y="12.5">
</use>
</g>
</g>
<g class="ChantNotationElement e" transform="translate(72.28972778320312,0)">
<text source-index="304" x="-7.002777099609375" y="49.07025" class="lyric" text-anchor="start" style="">
<tspan source-index="0" style="">
tum</tspan>
</text>
<g class="Notations">
<use xlink:href="#PunctumQuadratum" class=" note" source-index="308" element-index="55" id="note-53" x="3.125" y="18.75">
</use>
</g>
</g>
<g class="ChantNotationElement e" transform="translate(110.33587951660155,0)">
<text source-index="311" x="-10.726913452148438" y="49.07025" class="lyric" text-anchor="start" style="">
<tspan source-index="0" style="">
de</tspan>
</text>
<g class="Notations">
<use xlink:href="#PodatusLower" class=" note" source-index="314" element-index="56" id="note-54" x="3.125" y="25">
</use>
<use xlink:href="#PodatusUpper" class=" note" source-index="315" element-index="57" id="note-55" x="6.25" y="18.75">
</use>
</g>
</g>
<g class="ChantNotationElement e" transform="translate(123.64908142089843,0)">
<text source-index="317" x="-5.9300384521484375" y="49.07025" class="lyric" text-anchor="start" style="">
<tspan source-index="0" style="">
fi</tspan>
</text>
<g class="Notations">
<use xlink:href="#PunctumQuadratum" class=" note" source-index="320" element-index="58" id="note-56" x="3.125" y="18.75">
</use>
</g>
</g>
<g class="ChantNotationElement e" transform="translate(137.49631042480468,0)">
<text source-index="322" x="-8.056777954101562" y="49.07025" class="lyric" text-anchor="start" style="">
<tspan source-index="0" style="">
cit.</tspan>
</text>
<g class="Notations">
<use xlink:href="#PunctumQuadratum" class=" note" source-index="327" element-index="59" id="note-57" x="3.125" y="18.75">
</use>
<use xlink:href="#Mora" class="" x="6.375" y="14.0625">
</use>
</g>
</g>
<g class="ChantNotationElement e" transform="translate(154.68381042480468,0)">
<g class="Notations">
<rect x="0" y="-18.75" width="0.8" height="37.5" fill="#000" class="dividerLine" source-index="332" element-index="60">
</rect>
<rect x="5.45" y="-18.75" width="0.8" height="37.5" fill="#000" class="dividerLine" source-index="332" element-index="60">
</rect>
</g>
</g>
</g>
</g>
</svg>
